<svg width="397" height="344" viewBox="0 0 397 344" fill="none" xmlns="http://www.w3.org/2000/svg">
<g clip-path="url(#clip0_21_2)">
<path d="M382.711 281.484H14.2895C6.41013 281.484 0 274.926 0 266.865V221.502H397V266.865C397 274.926 390.59 281.484 382.711 281.484Z" fill="#E6E6E6"/>
<path d="M152.23 273.896H246.182V342.551H152.23V273.896Z" fill="#E6E6E6"/>
<path d="M146.579 333.879H251.834V342.551H146.579V333.879Z" fill="#E6E6E6"/>
<path d="M396.647 240.653H0V10.032C0 4.50025 4.3989 0 9.80608 0H386.841C392.248 0 396.647 4.50025 396.647 10.032V240.653Z" fill="#3F3D56"/>
<path d="M9.18356 10.479H387.11V228.006H9.18356V10.479Z" fill="white"/>
<path d="M82.3734 140.131C85.2665 137.686 88.844 137.231 90.3644 139.114C91.8855 140.997 90.7728 144.506 87.879 146.952C86.7361 147.945 85.3773 148.644 83.9164 148.989L71.5324 159.191L66.9765 153.144L79.6691 143.728C80.2767 142.325 81.204 141.092 82.3734 140.131Z" fill="#FFB6B6"/>
<path d="M10.7964 163.15C10.7897 162.698 10.7937 158.762 13.6417 156.275C16.9139 153.417 21.5296 154.574 23.1491 154.98C26.8889 155.917 27.1962 157.559 30.7085 159.245C37.2796 162.4 29.0458 160.785 32.9565 159.773C34.31 159.423 53.7818 158.042 58.629 154.99C68.0553 149.054 74.4781 145.455 74.4781 145.455L78.6768 154.046C78.6768 154.046 72.6052 162.683 64.0601 169.081C55.2949 175.644 50.9119 178.926 44.2517 180.194C43.6778 180.303 29.5719 182.767 18.2102 174.083C15.6183 172.102 10.8702 168.474 10.7964 163.15Z" fill="#D8B4FE"/>
<path d="M23.8209 141.3C31.8993 141.3 38.4482 134.6 38.4482 126.336C38.4482 118.071 31.8993 111.371 23.8209 111.371C15.7424 111.371 9.19353 118.071 9.19353 126.336C9.19353 134.6 15.7424 141.3 23.8209 141.3Z" fill="#FFB6B6"/>
<path d="M138.375 226.87L123.311 211.096L115.535 219.394L126.758 234.519L137.89 235.822L138.375 226.87Z" fill="#FFB6B6"/>
<path d="M52.3599 197.289C53.2404 197.363 56.0405 197.938 58.7168 196.431C60.5431 195.403 61.4802 193.874 61.7962 193.388C65.7215 187.358 80.7865 177.954 94.3064 177.375C97.3685 177.244 99.3837 177.606 101.215 178.583C103.813 179.969 104.85 181.953 108.146 186.601C109.949 189.143 111.943 191.538 113.768 194.065C124.451 208.854 128.501 210.016 128.088 214.757C127.628 220.018 122.082 225.009 118.396 224.432C116.886 224.197 116.302 223.122 114.285 220.949C108.372 214.575 105.925 215.752 101.715 210.87C96.7998 205.17 97.443 200.444 94.8784 200.262C92.5007 200.093 91.4897 204.125 86.4124 209.48C84.0893 211.931 82.4352 213.055 77.3952 216.633C57.7684 230.563 57.4544 231.541 53.4938 232.652C51.7606 233.138 39.4604 236.589 35.0788 231.098C28.2218 222.507 44.4207 196.614 52.3599 197.289ZM133.769 230.436C134.878 229.926 136.173 229.331 136.589 227.962C136.871 227.037 136.709 225.895 136.127 225.106C135.454 224.196 134.459 224.076 134.498 223.915C134.56 223.67 136.914 223.765 139.498 224.7C139.986 224.877 142.195 225.702 145.005 227.947C147.257 229.744 146.954 230.105 148.366 231.142C152.7 234.325 156.764 231.816 159.109 234.801C160.015 235.953 160.401 237.589 160.02 238.911C159.255 241.567 155.535 242.481 153.502 242.952C148.606 244.089 144.9 243.161 141.031 242.495C127.871 240.226 120.477 242.292 119.487 239.173C119.3 238.583 119.604 238.633 120.619 234.301C121.62 230.025 121.588 228.851 122.44 228.509C123.724 227.994 124.587 230.338 127.821 231.14C130.687 231.851 133.052 230.765 133.769 230.435V230.436Z" fill="#2F2E41"/>
<path d="M111.594 278.476L107.788 256.769L96.7985 259.169L97.7835 278.131L106.28 285.604L111.594 278.476Z" fill="#FFB6B6"/>
<path d="M56.6577 204.585C57.3454 205.153 59.3473 207.236 62.3887 207.527C64.4638 207.726 66.078 206.999 66.6067 206.779C73.1645 204.044 90.7921 204.917 102.297 212.205C104.903 213.855 106.37 215.313 107.35 217.174C108.74 219.812 108.508 222.05 108.684 227.789C108.781 230.929 109.117 234.057 109.24 237.196C109.961 255.57 112.675 258.857 109.73 262.543C106.462 266.632 99.1343 267.576 96.4001 264.982C95.2807 263.919 95.3865 262.695 94.9103 259.738C93.5163 251.066 90.8453 250.635 90.0418 244.177C89.1027 236.637 92.23 233.095 90.2081 231.471C88.3326 229.965 85.2838 232.72 78.1427 234.236C74.8751 234.929 72.8885 234.909 66.7551 234.973C42.8684 235.224 42.0722 235.854 38.1848 234.498C36.4842 233.905 24.4128 229.693 23.8002 222.633C22.8425 211.585 50.4584 199.465 56.6577 204.585ZM105.826 278.78C107.023 278.995 108.421 279.247 109.518 278.354C110.259 277.75 110.751 276.712 110.702 275.725C110.645 274.585 109.887 273.913 110.008 273.803C110.195 273.636 112.09 275.067 113.715 277.325C114.021 277.752 115.396 279.704 116.49 283.175C117.366 285.957 116.917 286.08 117.516 287.75C119.355 292.874 124.096 293.133 124.398 296.95C124.514 298.423 123.936 299.998 122.895 300.874C120.804 302.632 117.225 301.252 115.283 300.474C110.608 298.601 108.051 295.705 105.215 292.93C95.5714 283.493 88.3193 280.955 89.2125 277.805C89.3814 277.209 89.6055 277.426 92.8232 274.424C95.9984 271.462 96.6156 270.471 97.5095 270.678C98.8549 270.989 98.281 273.424 100.517 275.946C102.499 278.181 105.052 278.641 105.826 278.78ZM25.8155 129.197C26.3848 127.113 25.6691 126.353 26.3987 125.418C26.3987 125.418 26.6914 125.041 29.3145 124.026C28.541 119.433 29.1203 118.656 29.1203 118.656C29.788 117.761 31.1255 117.544 32.036 117.661C33.9621 117.909 34.3033 119.69 35.5357 119.65C37.2384 119.596 39.2802 116.108 38.6457 113.087C38.1289 110.622 35.8995 108.792 35.3409 109.11C34.7869 109.425 32.7922 108.036 32.036 108.314C31.5199 108.504 29.0884 108.251 28.537 108.513C27.9351 108.799 26.2105 110.578 26.0456 110.354C24.9003 108.795 24.9249 108.252 24.2605 107.916C23.0826 107.322 21.8023 108.421 19.5949 109.507C15.0523 111.742 13.7221 110.409 11.6244 112.291C10.5643 113.243 9.99564 115.06 8.90223 118.656C7.37319 123.684 6.609 126.199 7.34725 128.599C8.10013 131.048 9.2095 130.516 10.8463 133.969C12.6686 137.814 12.0408 140.049 13.7627 140.93C15.0929 141.61 17.2318 141.178 18.0392 139.936C19.422 137.81 15.8484 134.933 17.0675 131.583C17.8158 129.526 20.123 127.967 21.5383 128.401C23.1391 128.892 23.2569 131.827 24.2605 131.782C25.1198 131.743 25.7164 129.56 25.8155 129.196V129.197Z" fill="#2F2E41"/>
<path d="M14.7344 143.516C17.7273 140.082 29.9197 143.636 31.0643 149.084C31.5346 151.325 29.7973 152.272 30.2862 154.852C31.0025 158.626 35.0549 158.369 38.0624 162.211C42.333 167.665 37.9334 172.996 42.728 182.099C43.7523 184.044 44.6169 185.683 46.4219 187.269C50.5654 190.91 54.421 189.661 56.5313 193.037C58.1082 195.561 57.4604 198.672 57.3081 199.401C56.6856 202.39 54.9983 203.118 53.8091 205.566C51.8304 209.64 54.0705 212.631 54.1982 217.499C54.3571 223.589 51.1933 232.032 44.867 234.802C37.7585 237.913 29.1861 232.759 25.038 227.642C22.5625 224.588 21.8435 221.771 20.7614 218.294C15.9209 202.756 13.1867 204.161 9.48551 191.843C5.25488 177.762 4.42285 161.265 9.48551 156.045C10.1573 155.353 12.0035 153.754 13.1794 150.874C14.7617 146.999 13.3949 145.053 14.7344 143.516Z" fill="#D8B4FE"/>
<path d="M58.9622 223.442C61.2834 226.458 61.6425 230.128 59.7663 231.639C57.8894 233.149 54.4875 231.928 52.1663 228.91C51.2231 227.718 50.5727 226.312 50.2695 224.809L40.5944 211.902L45.5932 208L55.5111 220.59C56.8678 221.245 58.0504 222.223 58.9622 223.442Z" fill="#FFB6B6"/>
<path d="M23.5289 156.601C23.9599 156.503 27.7263 155.704 30.6879 158.048C34.0898 160.742 33.9249 165.601 33.867 167.305C33.734 171.242 32.2256 171.885 31.3284 175.747C29.6497 182.972 32.8461 189.686 34.6126 193.397C35.2238 194.68 37.1878 198.609 41.0972 202.841C48.7005 211.07 55.4844 215.401 55.4844 215.401L48.1964 222.028C48.1964 222.028 36.5872 218.409 28.7212 211.156C20.6524 203.716 8.24312 177.395 5.67122 170.983C5.44974 170.431 8.58764 179.408 14.5788 166.257C15.9455 163.257 18.4496 157.761 23.5289 156.601Z" fill="#D8B4FE"/>
<path d="M210.061 150.426L201.359 146.21C204.927 151.306 208.003 159.264 209.65 165.596C212.437 159.697 216.931 152.479 221.379 148.168L212.182 150.588C217.849 122.174 239.165 101.776 263.574 101.776L263.92 100.75C238.423 100.75 215.847 120.865 210.061 150.427V150.426Z" fill="#3F3D56"/>
<path d="M250.112 193.72H195.13C192.798 193.72 190.9 191.779 190.9 189.394C190.9 187.008 192.798 185.067 195.13 185.067H250.112C252.443 185.067 254.341 187.008 254.341 189.394C254.341 191.779 252.443 193.721 250.111 193.721L250.112 193.72Z" fill="#D8B4FE"/>
<path d="M323.271 193.72H268.29C265.957 193.72 264.06 191.779 264.06 189.394C264.06 187.008 265.957 185.067 268.29 185.067H323.271C325.603 185.067 327.501 187.008 327.501 189.394C327.501 191.779 325.603 193.721 323.271 193.721L323.271 193.72Z" fill="#E6E6E6"/>
<path d="M290.723 76.0137H237.278C235.931 76.0137 234.835 74.8924 234.835 73.5139C234.835 72.1354 235.931 71.0147 237.278 71.0147H290.723C292.07 71.0147 293.166 72.1354 293.166 73.5139C293.166 74.8924 292.07 76.0137 290.723 76.0137ZM319.402 102.685H208.599C207.251 102.685 206.155 101.563 206.155 100.185C206.155 98.8062 207.251 97.6856 208.599 97.6856H319.401C320.049 97.6863 320.67 97.9498 321.128 98.4184C321.586 98.8869 321.844 99.5221 321.844 100.185C321.844 100.847 321.586 101.483 321.128 101.951C320.67 102.42 320.049 102.684 319.401 102.685H319.402Z" fill="#3F3D56"/>
<path d="M24.0237 343.19C24.0237 343.639 24.3762 344 24.8152 344H372.185C372.624 344 372.976 343.639 372.976 343.19C372.976 342.741 372.624 342.381 372.185 342.381H24.8152C24.3762 342.381 24.0237 342.741 24.0237 343.19ZM109.32 151.254C109.226 151.254 109.132 151.25 109.037 151.244C103.471 150.878 84.4258 148.121 73.0561 128.01C72.1183 126.353 72.3032 124.248 73.515 122.771L94.5718 97.1045C95.4324 96.0553 96.7626 95.4504 98.11 95.4668C99.0412 95.4899 101.246 95.7301 101.674 97.4692C104.204 107.741 114.885 119.819 127.73 121.42C129.033 121.581 130.078 122.77 130.526 124.598C130.701 125.293 130.711 126.02 130.556 126.72C130.402 127.42 130.087 128.072 129.639 128.623L112.771 149.579C112.353 150.102 111.826 150.523 111.229 150.813C110.633 151.103 109.981 151.254 109.32 151.254ZM98.0289 96.4996C97.5185 96.5002 97.0143 96.6139 96.551 96.833C96.0877 97.0521 95.6764 97.3713 95.3452 97.7686L74.2885 123.435C73.3487 124.58 73.2044 126.211 73.9294 127.492C85.049 147.16 103.663 149.856 109.103 150.213C110.213 150.289 111.28 149.805 111.991 148.922L128.859 127.967C129.207 127.54 129.45 127.035 129.57 126.493C129.689 125.951 129.682 125.388 129.547 124.85C129.282 123.771 128.634 122.572 127.608 122.444C114.338 120.791 103.306 108.324 100.695 97.721C100.483 96.863 99.2101 96.5275 98.0887 96.5003L98.0289 96.4996Z" fill="#3F3D56"/>
<path d="M85.8165 128.854L100.997 113.019C102.035 111.936 100.409 110.27 99.3704 111.354L84.189 127.19C83.1515 128.272 84.777 129.938 85.8165 128.854ZM94.9788 133.315C99.1695 129.466 102.809 125.032 105.791 120.144C106.578 118.856 104.587 117.673 103.804 118.956C100.921 123.669 97.4022 127.943 93.352 131.65C92.2466 132.664 93.8787 134.324 94.9788 133.315ZM103.237 138.657C107.058 134.336 110.292 129.509 112.855 124.305C113.518 122.955 111.534 121.762 110.868 123.117C108.405 128.147 105.291 132.814 101.61 136.993C100.619 138.115 102.242 139.785 103.237 138.657Z" fill="#E6E6E6"/>
<path d="M96.7326 110.149C105.186 110.149 112.038 103.286 112.038 94.8204C112.038 86.3547 105.186 79.492 96.7326 79.492C88.2795 79.492 81.4269 86.3547 81.4269 94.8204C81.4269 103.286 88.2795 110.149 96.7326 110.149Z" fill="#D8B4FE"/>
<path d="M104.696 102.091L97.6352 84.3291C97.3093 83.5112 96.2917 83.4826 95.9744 84.3291C93.6486 90.5365 92.1282 97.014 91.398 103.618C91.2736 104.743 92.9968 104.734 93.1205 103.618C93.4089 101.035 93.8278 98.4694 94.3756 95.9308C96.3195 96.0332 98.2668 95.8142 100.143 95.2824L103.036 102.56C103.448 103.596 105.115 103.143 104.696 102.091ZM94.7666 94.1889C95.3459 91.7599 96.0416 89.3594 96.8484 86.997L99.4888 93.6371C97.9487 94.0514 96.3584 94.2372 94.7666 94.1889Z" fill="white"/>
</g>
<defs>
<clipPath id="clip0_21_2">
<rect width="397" height="344" fill="white"/>
</clipPath>
</defs>
</svg>
